<?xml version="1.0" encoding="UTF-8"?>
<svg version="1.1" xmlns="http://www.w3.org/2000/svg" width="84" height="57">
<path d="M0 0 C6.27 0 12.54 0 19 0 C24.63606795 10.54813508 30.117254 21.07806815 35 32 C43.91 32 52.82 32 62 32 C65.24830994 25.13501579 65.24830994 25.13501579 68.49194336 18.26782227 C68.89550049 17.41760498 69.29905762 16.5673877 69.71484375 15.69140625 C70.12855225 14.81685791 70.54226074 13.94230957 70.96850586 13.04125977 C72 11 72 11 73 10 C74.51928038 9.92820036 76.04167482 9.91607993 77.5625 9.9375 C78.38878906 9.94652344 79.21507813 9.95554687 80.06640625 9.96484375 C80.70449219 9.97644531 81.34257813 9.98804688 82 10 C81.37636093 14.16995424 79.9616262 17.42514447 78.05859375 21.17578125 C77.53322021 22.21903564 77.00784668 23.26229004 76.46655273 24.3371582 C75.46217163 26.30495239 75.46217163 26.30495239 74.4375 28.3125 C71.2509375 34.5928125 71.2509375 34.5928125 68 41 C55.13 41 42.26 41 29 41 C25.04 33.141875 25.04 33.141875 21 25.125 C20.1646875 23.47258301 19.329375 21.82016602 18.46875 20.11767578 C17.81218263 18.8103807 17.15591211 17.50293647 16.5 16.1953125 C16.15453125 15.51460693 15.8090625 14.83390137 15.453125 14.13256836 C13 9.2281436 13 9.2281436 13 7 C8.71 7 4.42 7 0 7 C0 4.69 0 2.38 0 0 Z " fill="#FEFEFE" transform="translate(1,1)"/>
<path d="M0 0 C3.5 0.25 3.5 0.25 5.5 2.25 C5.75 5.75 5.75 5.75 5.5 9.25 C3.5 11.25 3.5 11.25 0 11.5 C-3.5 11.25 -3.5 11.25 -5.5 9.25 C-5.75 5.75 -5.75 5.75 -5.5 2.25 C-3.5 0.25 -3.5 0.25 0 0 Z " fill="#FEFEFE" transform="translate(62.5,45.75)"/>
<path d="M0 0 C3.5 0.25 3.5 0.25 5.5 2.25 C5.75 5.75 5.75 5.75 5.5 9.25 C3.5 11.25 3.5 11.25 0 11.5 C-3.5 11.25 -3.5 11.25 -5.5 9.25 C-5.75 5.75 -5.75 5.75 -5.5 2.25 C-3.5 0.25 -3.5 0.25 0 0 Z " fill="#FEFEFE" transform="translate(34.5,45.75)"/>
</svg>
